<svg width="194" height="40" viewBox="0 0 194 40" fill="none" xmlns="http://www.w3.org/2000/svg">
<path d="M11.4302 28.9L10.8302 28.324C10.6622 28.372 10.2302 28.408 10.0022 28.408C9.2822 28.408 3.6782 28.408 3.1022 28.408C2.6582 28.408 2.1662 28.36 1.7462 28.3V29.38C2.2142 29.344 2.6582 29.32 3.1022 29.32C3.6782 29.32 9.1022 29.32 9.9422 29.32C9.5582 30.064 8.4302 31.36 7.3142 31.996L8.1182 32.632C9.4862 31.684 10.6262 30.136 11.1062 29.32C11.1902 29.188 11.3342 29.008 11.4302 28.9ZM6.6302 30.472H5.5502C5.5982 30.796 5.5982 31.06 5.5982 31.348C5.5982 33.352 5.3342 35.056 3.4862 36.196C3.1502 36.424 2.7302 36.628 2.4062 36.736L3.2822 37.456C6.3422 35.92 6.6302 33.724 6.6302 30.472ZM22.5662 28.984L21.9662 28.516C21.7742 28.576 21.4502 28.612 21.0662 28.612C20.6102 28.612 16.9022 28.612 16.4342 28.612C16.0622 28.612 15.3782 28.564 15.2222 28.54V29.62C15.3542 29.608 16.0022 29.56 16.4342 29.56C16.8422 29.56 20.6822 29.56 21.1142 29.56C20.8022 30.556 19.9262 31.984 19.1102 32.908C17.8742 34.276 16.1102 35.716 14.1662 36.46L14.9342 37.264C16.8302 36.4 18.5462 34.972 19.8902 33.472C20.8862 32.368 21.7982 30.688 22.2782 29.5C22.3382 29.344 22.4942 29.08 22.5662 28.984ZM20.0462 32.848L19.3622 33.52C20.6582 34.66 22.0622 36.196 22.9262 37.336L23.7542 36.604C22.9382 35.608 21.3422 33.928 20.0462 32.848ZM30.6782 31.504L30.0182 32.176C31.5062 33.1 33.5582 34.576 34.6622 35.584L35.3702 34.744C34.1822 33.784 32.2142 32.404 30.6782 31.504ZM36.1622 29.32L35.3702 28.84C35.1782 28.912 34.9142 28.948 34.5902 28.948H30.7742L30.3902 29.812H34.8302C34.5542 30.928 33.7982 32.452 32.8742 33.556C31.7942 34.84 30.1622 36.112 27.9302 36.784L28.7822 37.54C31.0622 36.7 32.6222 35.416 33.7142 34.072C34.7702 32.776 35.5262 31.18 35.8862 29.956C35.9462 29.764 36.0662 29.488 36.1622 29.32ZM32.1182 27.58L31.0262 27.232C30.9542 27.544 30.7622 27.976 30.6422 28.18C30.0902 29.284 28.8542 31.084 26.8022 32.368L27.5942 32.98C29.5142 31.66 30.8702 29.848 31.5782 28.528C31.6982 28.3 31.9142 27.892 32.1182 27.58ZM47.7182 27.904H46.5902C46.6262 28.192 46.6622 28.54 46.6622 28.948C46.6622 29.368 46.6622 30.376 46.6622 30.844C46.6622 33.1 46.5062 34.084 45.6542 35.068C44.9102 35.92 43.8902 36.388 42.7862 36.676L43.5782 37.504C44.4542 37.204 45.6542 36.676 46.4222 35.74C47.2982 34.72 47.6822 33.772 47.6822 30.88C47.6822 30.436 47.6822 29.416 47.6822 28.948C47.6822 28.54 47.6942 28.192 47.7182 27.904ZM42.1502 28H41.0582C41.0942 28.228 41.1062 28.648 41.1062 28.852C41.1062 29.212 41.1062 32.344 41.1062 32.86C41.1062 33.208 41.0822 33.592 41.0582 33.784H42.1502C42.1262 33.568 42.1142 33.172 42.1142 32.86C42.1142 32.356 42.1142 29.212 42.1142 28.852C42.1142 28.576 42.1262 28.228 42.1502 28ZM61.4702 29.032L60.7382 28.564C60.5102 28.612 60.2702 28.624 60.0902 28.624C59.5502 28.624 54.7622 28.624 54.0782 28.624C53.6822 28.624 53.2022 28.588 52.8782 28.54V29.608C53.1782 29.596 53.5862 29.572 54.0662 29.572C54.7622 29.572 59.5142 29.572 60.2102 29.572C60.0422 30.724 59.4902 32.392 58.6382 33.484C57.6302 34.768 56.2862 35.788 53.9582 36.364L54.7742 37.264C56.9702 36.58 58.3982 35.464 59.4902 34.06C60.4502 32.824 61.0262 30.892 61.2902 29.632C61.3382 29.392 61.3862 29.2 61.4702 29.032ZM67.8902 35.944C67.8902 36.388 67.8782 36.988 67.8182 37.372H68.9822C68.9342 36.976 68.9102 36.328 68.9102 35.944C68.9102 35.38 68.8982 30.832 68.8982 28.972C68.8982 28.6 68.9342 28.084 68.9822 27.712H67.8062C67.8662 28.096 67.8902 28.624 67.8902 28.972C67.8902 29.968 67.8902 35.272 67.8902 35.944ZM68.6822 30.868V31.924C69.9902 32.332 72.2342 33.184 73.6022 33.916L74.0222 32.896C72.6902 32.248 70.2662 31.324 68.6822 30.868ZM86.2862 28.264L85.1942 27.892C85.1342 28.144 85.0262 28.54 84.9422 28.78C84.5342 29.956 83.9342 31.288 82.9502 32.56C81.7142 34.132 80.1782 35.56 77.9462 36.628L78.7622 37.372C81.0302 36.196 82.5902 34.612 83.7422 33.148C84.7262 31.9 85.4462 30.34 85.9022 29.152C85.9982 28.9 86.1662 28.492 86.2862 28.264ZM79.9502 29.68L79.3142 30.436C80.6342 31.24 82.1942 32.428 83.0582 33.148C84.2582 34.156 85.3022 35.104 86.2982 36.256L87.0542 35.428C86.1062 34.396 84.9182 33.352 83.7182 32.368C82.8062 31.636 81.1382 30.436 79.9502 29.68ZM92.0222 28.216L91.3262 28.948C92.2262 29.536 93.7142 30.832 94.3262 31.456L95.0702 30.688C94.4102 30.028 92.8622 28.78 92.0222 28.216ZM90.9902 36.256L91.6142 37.24C93.6182 36.868 95.1302 36.124 96.3422 35.368C98.1542 34.228 99.5462 32.596 100.362 31.108L99.7862 30.076C99.0902 31.564 97.6382 33.34 95.7782 34.504C94.6382 35.212 93.0782 35.944 90.9902 36.256ZM114.482 27.028L113.822 27.304C114.122 27.736 114.53 28.42 114.77 28.912L115.442 28.612C115.202 28.156 114.77 27.448 114.482 27.028ZM116.03 26.728L115.37 27.004C115.694 27.412 116.078 28.108 116.342 28.6L117.014 28.312C116.762 27.844 116.318 27.136 116.03 26.728ZM115.562 29.188L114.83 28.72C114.614 28.78 114.374 28.792 114.194 28.792C113.642 28.792 108.854 28.792 108.17 28.792C107.774 28.792 107.306 28.744 106.97 28.708V29.776C107.282 29.752 107.69 29.728 108.17 29.728C108.854 29.728 113.618 29.728 114.302 29.728C114.146 30.88 113.582 32.56 112.73 33.64C111.734 34.924 110.378 35.944 108.062 36.532L108.878 37.432C111.074 36.736 112.502 35.632 113.594 34.216C114.542 32.992 115.13 31.048 115.382 29.788C115.43 29.56 115.49 29.356 115.562 29.188ZM120.914 28.072V29.068C121.238 29.044 121.622 29.032 121.982 29.032C122.642 29.032 126.014 29.032 126.686 29.032C127.094 29.032 127.514 29.044 127.79 29.068V28.072C127.502 28.108 127.082 28.132 126.71 28.132C126.002 28.132 122.63 28.132 121.982 28.132C121.598 28.132 121.226 28.108 120.914 28.072ZM128.678 31.228L127.994 30.808C127.862 30.868 127.598 30.904 127.322 30.904C126.71 30.904 121.598 30.904 121.01 30.904C120.674 30.904 120.266 30.868 119.834 30.832V31.84C120.266 31.804 120.722 31.792 121.01 31.792C121.73 31.792 126.782 31.792 127.37 31.792C127.154 32.668 126.674 33.688 125.954 34.444C124.922 35.524 123.422 36.304 121.73 36.652L122.474 37.504C123.998 37.072 125.51 36.376 126.758 34.996C127.658 34.012 128.198 32.764 128.51 31.588C128.534 31.492 128.618 31.348 128.678 31.228ZM133.586 28.216L132.89 28.948C133.79 29.536 135.278 30.832 135.89 31.456L136.634 30.688C135.974 30.028 134.426 28.78 133.586 28.216ZM132.554 36.256L133.178 37.24C135.182 36.868 136.694 36.124 137.906 35.368C139.718 34.228 141.11 32.596 141.926 31.108L141.35 30.076C140.654 31.564 139.202 33.34 137.342 34.504C136.202 35.212 134.642 35.944 132.554 36.256ZM151.454 28.372L150.782 28.66C151.178 29.2 151.562 29.86 151.862 30.496L152.546 30.184C152.27 29.608 151.754 28.804 151.454 28.372ZM152.894 27.772L152.246 28.084C152.642 28.612 153.038 29.248 153.35 29.884L154.022 29.548C153.746 28.984 153.218 28.192 152.894 27.772ZM147.242 36.1C147.242 36.556 147.218 37.144 147.158 37.528H148.322C148.274 37.132 148.25 36.484 148.25 36.1C148.25 35.536 148.238 31 148.238 29.128C148.238 28.768 148.286 28.24 148.322 27.88H147.146C147.206 28.252 147.242 28.78 147.242 29.128C147.242 30.136 147.242 35.44 147.242 36.1ZM148.022 31.024V32.08C149.33 32.488 151.574 33.34 152.942 34.072L153.362 33.064C152.03 32.404 149.618 31.48 148.022 31.024ZM164.942 31.492V28.648C164.942 28.18 164.99 27.796 165.002 27.676H163.91C163.934 27.784 163.97 28.18 163.97 28.648V31.564C163.97 34.936 162.89 35.968 160.706 36.796L161.51 37.564C164.246 36.328 164.942 34.684 164.942 31.492ZM160.61 27.748H159.542C159.578 28.024 159.602 28.36 159.602 28.612V33.016C159.602 33.472 159.554 33.988 159.542 34.096H160.61C160.598 33.988 160.562 33.46 160.562 33.016V28.612C160.562 28.204 160.598 27.856 160.61 27.748ZM157.106 30.076V31.108C157.238 31.108 157.778 31.072 158.306 31.072H166.262C166.79 31.072 167.222 31.096 167.354 31.108V30.088C167.186 30.112 166.79 30.16 166.25 30.16H158.306C157.802 30.16 157.214 30.088 157.106 30.076ZM170.054 32.668L170.522 33.604C172.454 33.004 174.362 32.128 175.682 31.312C177.086 30.436 178.346 29.428 179.378 28.36L178.574 27.604C177.746 28.612 176.546 29.644 175.286 30.436C173.954 31.264 172.13 32.116 170.054 32.668ZM175.094 30.928V36.1C175.094 36.544 175.058 37.144 175.022 37.372H176.21C176.15 37.144 176.126 36.544 176.126 36.1V30.616L175.094 30.928ZM185.774 35.944C185.774 36.388 185.762 36.988 185.702 37.372H186.866C186.818 36.976 186.794 36.328 186.794 35.944C186.794 35.38 186.782 30.832 186.782 28.972C186.782 28.6 186.818 28.084 186.866 27.712H185.69C185.75 28.096 185.774 28.624 185.774 28.972C185.774 29.968 185.774 35.272 185.774 35.944ZM186.566 30.868V31.924C187.874 32.332 190.118 33.184 191.486 33.916L191.906 32.896C190.574 32.248 188.15 31.324 186.566 30.868Z" fill="white"/>
<path fill-rule="evenodd" clip-rule="evenodd" d="M166.005 9.03776H172.01V7.74254H166.005V1.4678H172.365V0.173686H164.504V17.8251H172.673V16.5287H166.003V9.03776H166.005ZM191.151 0.173686V14.992L184.325 0.173686H182.545V17.8251H183.894V3.04344L190.726 17.8228H192.5V0.173686H191.151ZM152.569 0.173686L147.96 15.5451L143.702 0.173686H141.782L141.769 17.8251H143.131V3.76672L147.136 17.8251H148.625L152.843 3.88912L152.828 17.8251H154.266L154.279 0.173686H152.565H152.569ZM74.4994 0.260479H73.0143V17.9119H80.8758V16.6189H74.4994V0.260479ZM90.1264 17.9119H91.6344V0.261591H90.1264V17.9119ZM102.591 17.9119H104.096V9.12122H110.101V7.82822H104.096V1.55571H110.456V0.261591H102.595L102.591 17.9119ZM6.90054 0.261591L1.5 17.9119H2.99052L4.2139 13.8058H8.62766V12.5151H4.59334L7.62127 2.3502L12.0056 17.9119H13.5321L8.49464 0.261591H6.90054ZM59.0032 0.261591H57.6545L52.2539 17.9119H53.7445L54.9678 13.8058H59.3849V12.5151H55.3505L58.3785 2.3502L62.765 17.9119H64.2915L59.2486 0.261591H59.0032ZM46.5972 1.55571V0.261591H36.2486V1.55682H40.7583L40.7398 17.9119H42.1572V1.5546H46.5928L46.5972 1.55571ZM127.98 0.261591H117.633V1.55682H122.131L122.121 17.9141H123.544V1.55682H127.98V0.261591ZM27.3011 9.33709C26.7908 8.85973 24.3572 6.55524 23.7858 5.95993C23.4339 5.68523 23.1395 5.34136 22.92 4.94861C22.7006 4.55586 22.5604 4.1222 22.5079 3.67325C22.4894 3.07276 22.7051 2.48931 23.1076 2.05088C23.3472 1.82738 23.6278 1.65457 23.9333 1.54246C24.2387 1.43034 24.5629 1.38114 24.8871 1.3977C25.3425 1.37234 25.7952 1.48291 26.1901 1.71589C26.5849 1.94888 26.9047 2.29418 27.1103 2.70962C27.2024 2.90913 27.2638 3.12194 27.2924 3.34054H28.8025C28.7535 2.9968 28.6634 2.66048 28.5343 2.33908C28.2345 1.62398 27.7298 1.01812 27.0865 0.601083C26.4432 0.184044 25.6913 -0.0246783 24.9296 0.00232521C24.3857 -0.0142535 23.8442 0.0823684 23.338 0.2863C22.8319 0.490231 22.3717 0.797199 21.9856 1.1885C21.5655 1.64195 21.27 2.20044 21.129 2.80762C20.9879 3.41481 21.0062 4.04923 21.182 4.6469C21.423 5.52373 21.9987 6.25703 23.4467 7.6869C24.1336 8.36456 26.2326 10.392 26.4463 10.5989C26.8947 10.9291 27.2671 11.3552 27.5375 11.8474C27.8079 12.3395 27.9699 12.886 28.012 13.4487C28.0334 13.8391 27.9768 14.23 27.8456 14.5975C27.7144 14.9649 27.5113 15.3013 27.2488 15.5862C26.9493 15.8891 26.5936 16.1279 26.2024 16.2884C25.8112 16.4489 25.3926 16.528 24.971 16.5209C23.2461 16.4787 22.1448 15.3926 21.7 13.4186C21.6738 13.3018 21.6509 13.1371 21.6389 13.0325H20.1865C20.28 14.2413 20.7288 15.3931 21.4743 16.3373C21.9129 16.8568 22.4559 17.274 23.0663 17.5607C23.6768 17.8473 24.3405 17.9967 25.0125 17.9987C25.6488 18.0146 26.2808 17.8888 26.8646 17.6299C27.4484 17.371 27.9698 16.9854 28.3926 16.4998C28.91 15.8984 29.2644 15.1694 29.4204 14.3851C29.5765 13.6008 29.5289 12.7885 29.2823 12.0288C28.8598 10.9741 28.1792 10.0477 27.3055 9.3382" fill="white"/>
</svg>
