<svg width="25" height="20" viewBox="0 0 25 20" fill="none" xmlns="http://www.w3.org/2000/svg">
<path d="M22.0812 4.86911C22.0812 5.08901 22.0812 5.3089 22.0812 5.49738C22.0812 12 17.1178 19.5079 8.07068 19.5079C5.27487 19.5079 2.69895 18.6911 0.5 17.3089C0.876963 17.3403 1.28534 17.3717 1.6623 17.3717C3.9555 17.3717 6.09162 16.5864 7.78796 15.267C5.62042 15.2356 3.79843 13.7906 3.20157 11.8429C3.51571 11.9058 3.79843 11.9372 4.14398 11.9372C4.58377 11.9372 5.02356 11.8743 5.43194 11.7487C3.17016 11.3089 1.47382 9.32984 1.47382 6.94241C1.47382 6.911 1.47382 6.911 1.47382 6.87958C2.13351 7.25655 2.88743 7.47644 3.70419 7.50785C2.38482 6.62827 1.50524 5.12042 1.50524 3.39267C1.50524 2.48168 1.75654 1.63351 2.16492 0.910995C4.58377 3.89529 8.22775 5.84293 12.3115 6.06283C12.2173 5.71728 12.1859 5.3089 12.1859 4.93194C12.1859 2.19895 14.3848 0 17.1178 0C18.5314 0 19.8194 0.596859 20.699 1.53927C21.8298 1.31937 22.8665 0.910995 23.8403 0.34555C23.4633 1.50785 22.678 2.45026 21.6728 3.07853C22.678 2.95288 23.6204 2.70157 24.5 2.29319C23.8717 3.29843 23.055 4.17801 22.0812 4.86911Z" fill="url(#paint0_linear_281_1195)"/>
<defs>
<linearGradient id="paint0_linear_281_1195" x1="12.5" y1="-5.24274" x2="12.5" y2="19.5079" gradientUnits="userSpaceOnUse">
<stop stop-color="white"/>
<stop offset="1" stop-color="white"/>
</linearGradient>
</defs>
</svg>
