<svg width="106" height="23" viewBox="0 0 106 23" fill="none" xmlns="http://www.w3.org/2000/svg">
<path d="M57.0728 22.492C57.1345 22.6771 57.0317 22.8349 56.8396 22.8349H55.4681C55.2761 22.8349 55.0635 22.6771 55.0087 22.492L49.3306 2.64623C49.3306 2.64623 49.2621 2.41307 49.0632 2.41307C48.8849 2.41307 48.8369 2.64623 48.8369 2.64623L44.6744 16.2996C44.6195 16.4779 44.7224 16.6288 44.9212 16.6288H49.7352C49.9272 16.6288 50.085 16.7796 50.085 16.9785V17.294C50.085 17.486 49.9272 17.6437 49.7352 17.6437H44.5921C44.4 17.6437 44.1875 17.7877 44.1257 17.9729L42.6925 22.4988C42.6377 22.684 42.4182 22.8417 42.2262 22.8417H41.897C41.705 22.8417 41.6022 22.684 41.657 22.492L48.2403 1.28158C48.4597 0.623253 48.9603 0.170654 49.5844 0.170654C50.1192 0.170654 50.6473 0.396953 50.9422 1.28158L57.0728 22.492Z" fill="url(#paint0_linear_17_181)"/>
<path d="M15.9482 22.492C16.0167 22.6771 15.907 22.8349 15.7081 22.8349H14.3298C14.1378 22.8349 13.9252 22.6771 13.8703 22.492L8.19913 2.64623C8.19913 2.64623 8.13055 2.41307 7.93168 2.41307C7.75339 2.41307 7.70539 2.64623 7.70539 2.64623L3.54285 16.2996C3.48799 16.4779 3.59085 16.6288 3.78972 16.6288H8.61058C8.79574 16.6288 8.96032 16.7796 8.96032 16.9785V17.294C8.96032 17.486 8.78888 17.6437 8.61058 17.6437H3.46056C3.26855 17.6437 3.05597 17.7877 3.00111 17.9729L1.56102 22.4988C1.49244 22.684 1.29357 22.8417 1.09471 22.8417H0.786116C0.573532 22.8417 0.470668 22.684 0.532386 22.492L7.12249 1.28158C7.32822 0.623253 7.83568 0.170654 8.45286 0.170654C9.00146 0.170654 9.52264 0.396953 9.81065 1.28158L15.9482 22.492Z" fill="url(#paint1_linear_17_181)"/>
<path d="M23.0595 1.08955C21.0365 1.20612 19.9325 2.33762 19.7062 3.56512C19.2879 5.83497 21.3657 7.89224 23.9167 9.98379C26.0083 11.6913 27.7432 12.9394 28.4976 15.4904C29.245 18.0414 27.5718 21.9914 23.8756 22.7594C22.7646 22.972 21.3314 22.8828 20.0422 22.2314C18.7598 21.5868 17.2855 20.0781 16.6134 17.4311C16.5997 17.3557 16.5448 17.0814 16.6203 17.0333C16.7094 16.9716 16.8603 16.9305 16.9837 16.9236C17.1277 16.9168 17.1689 17.1019 17.2649 17.3831C18.1221 20.0232 19.857 20.9284 20.6662 21.2302C24.9179 22.8623 28.7376 18.2128 25.5968 14.0983C24.6299 12.8297 23.279 11.5747 21.8252 10.3335C18.9107 7.86481 17.9163 6.07498 18.1152 3.82571C18.3278 1.40499 20.8102 0.252925 22.4492 0.0540559C24.2802 -0.172243 26.2414 0.705523 27.2426 2.48163C27.2838 2.55706 27.3455 2.67364 27.3249 2.80393C27.3112 2.89308 27.2358 3.0028 27.1672 3.06452C27.0369 3.16738 26.9683 2.99594 26.8723 2.88622C26.5363 2.52277 24.9453 0.979825 23.0595 1.08955Z" fill="url(#paint2_linear_17_181)"/>
<path d="M105.364 1.00042C105.364 1.18557 105.199 1.34329 105.007 1.34329H100.454C100.262 1.34329 100.104 1.51473 100.104 1.69989V22.4783C100.104 22.6703 99.9464 22.8417 99.7544 22.8417H98.6434C98.4514 22.8417 98.2937 22.6703 98.2937 22.4783V1.7616C98.2937 1.57645 98.136 1.42558 97.944 1.42558H93.3014C93.1094 1.42558 92.9517 1.25415 92.9517 1.06899V0.767259C92.9517 0.575247 93.1094 0.403809 93.3014 0.403809H105.007C105.199 0.403809 105.364 0.575247 105.364 0.767259V1.00042V1.00042Z" fill="url(#paint3_linear_17_181)"/>
<path d="M41.856 1.00042C41.856 1.18557 41.6983 1.34329 41.5063 1.34329H36.9392C36.754 1.34329 36.5963 1.51473 36.5963 1.69989V22.4783C36.5963 22.6703 36.4386 22.8417 36.2465 22.8417H35.1356C34.9436 22.8417 34.7859 22.6703 34.7859 22.4783V1.7616C34.7859 1.57645 34.6282 1.42558 34.4361 1.42558H29.7936C29.6084 1.42558 29.4438 1.25415 29.4438 1.06899V0.767259C29.4438 0.575247 29.6016 0.403809 29.7936 0.403809H41.5131C41.7052 0.403809 41.8629 0.575247 41.8629 0.767259V1.00042H41.856Z" fill="url(#paint4_linear_17_181)"/>
<path d="M70.9252 22.4785C70.9252 22.6705 70.7675 22.8419 70.5755 22.8419C70.5755 22.8419 63.1488 22.8419 62.5247 22.8419C61.6607 22.8419 60.7966 22.115 60.7966 21.0452C60.7966 20.4143 60.7966 0.698878 60.7966 0.698878C60.7966 0.506866 60.9544 0.342285 61.1464 0.342285H62.3533C62.5453 0.342285 62.703 0.506866 62.703 0.698878V21.539C62.703 21.731 62.8607 21.8887 63.0528 21.8887H70.5823C70.7744 21.8887 70.9321 22.0396 70.9321 22.2384V22.4785H70.9252Z" fill="url(#paint5_linear_17_181)"/>
<path d="M76.4661 22.4785C76.4661 22.6705 76.3083 22.8419 76.1163 22.8419H74.882C74.6968 22.8419 74.5322 22.6705 74.5322 22.4785V0.698878C74.5322 0.506866 74.6968 0.342285 74.882 0.342285H76.1163C76.3083 0.342285 76.4661 0.506866 76.4661 0.698878V22.4785Z" fill="url(#paint6_linear_17_181)"/>
<path d="M91.2715 1.00042C91.2715 1.18557 91.1138 1.34329 90.9286 1.34329H83.4059C83.207 1.34329 83.0561 1.51473 83.0561 1.69989V9.6615C83.0561 9.85351 83.2138 10.0181 83.4059 10.0181H90.4349C90.6269 10.0181 90.7846 10.1621 90.7846 10.3541V10.6353C90.7846 10.8341 90.6269 10.985 90.4349 10.985H83.4059C83.207 10.985 83.0561 11.1427 83.0561 11.3347V22.4783C83.0561 22.6703 82.8984 22.8417 82.7064 22.8417H81.4789C81.2869 22.8417 81.1292 22.6703 81.1292 22.4783C81.1292 22.4783 81.1292 2.70109 81.1292 2.2142C81.1292 1.0347 82.0961 0.403809 82.919 0.403809C83.5156 0.403809 90.9355 0.403809 90.9355 0.403809C91.1275 0.403809 91.2783 0.575247 91.2783 0.767259V1.00042H91.2715Z" fill="url(#paint7_linear_17_181)"/>
<defs>
<linearGradient id="paint0_linear_17_181" x1="49.3665" y1="-5.92219" x2="49.3665" y2="22.8417" gradientUnits="userSpaceOnUse">
<stop stop-color="white"/>
<stop offset="1" stop-color="white"/>
</linearGradient>
<linearGradient id="paint1_linear_17_181" x1="8.24164" y1="-5.92219" x2="8.24164" y2="22.8417" gradientUnits="userSpaceOnUse">
<stop stop-color="white"/>
<stop offset="1" stop-color="white"/>
</linearGradient>
<linearGradient id="paint2_linear_17_181" x1="22.6267" y1="-6.1201" x2="22.6267" y2="22.8624" gradientUnits="userSpaceOnUse">
<stop stop-color="white"/>
<stop offset="1" stop-color="white"/>
</linearGradient>
<linearGradient id="paint3_linear_17_181" x1="99.1577" y1="-5.62638" x2="99.1577" y2="22.8417" gradientUnits="userSpaceOnUse">
<stop stop-color="white"/>
<stop offset="1" stop-color="white"/>
</linearGradient>
<linearGradient id="paint4_linear_17_181" x1="35.6534" y1="-5.62638" x2="35.6534" y2="22.8417" gradientUnits="userSpaceOnUse">
<stop stop-color="white"/>
<stop offset="1" stop-color="white"/>
</linearGradient>
<linearGradient id="paint5_linear_17_181" x1="65.8644" y1="-5.70449" x2="65.8644" y2="22.8419" gradientUnits="userSpaceOnUse">
<stop stop-color="white"/>
<stop offset="1" stop-color="white"/>
</linearGradient>
<linearGradient id="paint6_linear_17_181" x1="75.4991" y1="-5.70449" x2="75.4991" y2="22.8419" gradientUnits="userSpaceOnUse">
<stop stop-color="white"/>
<stop offset="1" stop-color="white"/>
</linearGradient>
<linearGradient id="paint7_linear_17_181" x1="86.2037" y1="-5.62638" x2="86.2037" y2="22.8417" gradientUnits="userSpaceOnUse">
<stop stop-color="white"/>
<stop offset="1" stop-color="white"/>
</linearGradient>
</defs>
</svg>
