<svg width="70" height="20" viewBox="0 0 70 20" fill="none" xmlns="http://www.w3.org/2000/svg">
<path d="M53.3241 0.0109038V9.20091C53.3241 9.79626 53.614 10.1102 54.2154 10.1318C54.2261 10.1318 57.222 10.1318 57.222 10.1318C57.222 10.1318 57.222 11.1277 57.222 11.1601C57.222 11.2792 57.1575 11.355 57.0287 11.355C56.9857 11.355 52.1644 11.355 52.1644 11.355C50.6611 11.355 50.4356 10.5215 50.4356 9.76378V0.638725C50.4356 0.205745 50.5967 7.9292e-05 51.1014 0.0109038H53.3241Z" fill="url(#paint0_linear_281_1085)"/>
<path d="M47.719 0.0107422V10.7703C47.719 11.2466 47.515 11.3656 47.1177 11.3656H44.8305V0.60609C44.8305 0.248881 44.9594 0.0107422 45.4748 0.0107422H47.719Z" fill="url(#paint1_linear_281_1085)"/>
<path d="M0 1.5803C0 0.714335 0 0.0107422 1.40666 0.0107422H7.61313V1.10402C7.61313 1.17979 7.58092 1.25556 7.47354 1.25556H3.75825C3.2643 1.25556 3.0066 1.4937 3.0066 2.00245C3.0066 2.01328 3.0066 4.88177 3.0066 4.88177H7.3769V6.02917C7.3769 6.12659 7.31247 6.18071 7.21583 6.18071H3.0066V10.7595C2.99586 11.2033 2.7811 11.3765 2.2979 11.3656H0V1.5803Z" fill="url(#paint2_linear_281_1085)"/>
<path d="M12.0908 0.0107422V8.67035C12.0908 9.41724 12.1982 9.93681 12.7136 10.2399C13.4115 10.6404 14.582 10.6512 15.2907 10.2507C15.7739 9.96929 15.9564 9.53631 15.9564 8.67035V0.584441C15.9564 0.216408 16.096 0.0107422 16.6007 0.0107422H18.8449V8.41056C18.8449 10.359 17.6208 11.16 16.547 11.4631C15.1081 11.8528 12.9391 11.8636 11.5861 11.4522C9.96469 10.9651 9.21304 10.0018 9.21304 8.41056V0.595265C9.21304 0.216408 9.3419 0.0107422 9.77141 0.0107422H12.0908Z" fill="url(#paint3_linear_281_1085)"/>
<path d="M66.6712 0.0107422C66.1021 0.0107422 65.78 0.281355 65.6511 0.790107L63.815 8.61622H63.7613L61.8607 0.0107422H59.2621C58.7574 0.0107422 58.6071 0.27053 58.6071 0.671037V11.3656H59.7024C59.8742 11.3656 59.9493 11.2791 59.9493 11.095V2.13235H60.1319L62.4727 11.3656H64.0082C64.5881 11.3656 64.8028 11.1275 64.9424 10.5538L67.0471 2.13235H67.2189V11.3656H69.2698C69.7745 11.3656 70 11.1708 70 10.6729V0.0107422H66.6712Z" fill="url(#paint4_linear_281_1085)"/>
<path d="M32.5571 6.18066H29.6687C29.6687 8.73525 29.6687 11.3656 29.6687 11.3656H31.9451C32.3531 11.3656 32.5464 11.2465 32.5464 10.7703C32.5571 10.7703 32.5571 8.55123 32.5571 6.18066Z" fill="url(#paint5_linear_281_1085)"/>
<path d="M32.3853 3.96177C32.482 3.87517 32.5464 3.82105 32.5571 3.63703C32.5571 2.50046 32.5571 0 32.5571 0H30.3129C29.8083 0 29.6687 0.248964 29.6687 0.606172C29.6687 0.606172 29.6687 3.36642 29.6687 6.10502L32.3853 3.96177Z" fill="url(#paint6_linear_281_1085)"/>
<path d="M22.4958 10.4672C23.7521 10.294 24.1602 9.53631 24.1602 8.43221V0.627739C24.1602 0.162285 24.4179 0.0107422 24.74 0.0107422H27.0486V7.39305C27.0486 9.21157 26.6728 10.1208 25.599 10.9002C25.0407 11.3007 24.0743 11.7553 21.9696 11.7553C20.767 11.7553 20.2301 11.6904 20.1549 11.6687C20.0583 11.6471 20.0154 11.5821 20.0154 11.4955C20.0154 11.4955 20.0154 10.7703 20.0154 10.543C20.52 10.5538 21.6475 10.5863 22.4958 10.4672Z" fill="url(#paint7_linear_281_1085)"/>
<path d="M36.9274 0.0107422C35.5208 0.0107422 35.5208 0.714335 35.5208 1.5803V4.50291C35.5208 4.56786 35.4993 4.58951 35.4671 4.61116L33.4913 6.18071H35.5208V11.3656H37.8187C38.3019 11.3765 38.5166 11.2033 38.5274 10.7595V6.18071H42.7366C42.8332 6.18071 42.8977 6.12659 42.8977 6.02917V4.88177H38.5274V2.00245C38.5274 1.4937 38.7743 1.25556 39.279 1.25556H42.9943C43.1017 1.25556 43.1339 1.17979 43.1339 1.10402V0.0107422H36.9274Z" fill="url(#paint8_linear_281_1085)"/>
<path d="M3.59716 14.7754L4.95013 17.7846L6.20646 14.7754H6.85073L5.07898 19.0294C5.03603 19.1268 4.93939 19.1918 4.83201 19.1918H4.53135L2.63076 14.9378C2.59854 14.862 2.65223 14.7754 2.73814 14.7754H3.59716" fill="url(#paint9_linear_281_1085)"/>
<path d="M11.1781 18.9428C11.1781 19.0402 11.1029 19.1268 10.9955 19.1268H10.2439V14.4831C10.2439 14.3857 10.319 14.2991 10.4264 14.2991H11.1781V18.9428Z" fill="url(#paint10_linear_281_1085)"/>
<path d="M36.9381 14.9487C36.9381 14.8512 37.0133 14.7646 37.1207 14.7646H37.9475V18.9321C37.9475 19.0295 37.8723 19.1161 37.765 19.1161H36.9381V14.9487Z" fill="url(#paint11_linear_281_1085)"/>
<path d="M50.3068 15.782L51.2087 17.8386L52.1322 15.782H52.7765L51.3269 19.0293C51.2839 19.1268 51.1873 19.1917 51.0799 19.1917H50.8329L49.4155 15.9444C49.3833 15.8686 49.437 15.782 49.5229 15.782H50.3068" fill="url(#paint12_linear_281_1085)"/>
<path d="M58.9937 16.0202C58.9937 15.9228 59.0688 15.8362 59.1762 15.8362H59.9279V18.932C59.9279 19.0294 59.8527 19.116 59.7453 19.116H58.9937V16.0202Z" fill="url(#paint13_linear_281_1085)"/>
<path d="M25.0084 15.7712C24.7185 15.7712 24.4178 15.9336 24.1923 16.1176V15.847H23.4407C23.344 15.847 23.2581 15.9228 23.2581 16.031V19.1268H24.0098C24.1064 19.1268 24.1923 19.0511 24.1923 18.9428V16.7671V16.7238C24.7399 16.1826 25.2876 16.4532 25.5667 16.6697V15.912C25.4379 15.8145 25.3198 15.7712 25.0084 15.7712Z" fill="url(#paint14_linear_281_1085)"/>
<path d="M8.18221 15.7712C9.21304 15.7712 9.44927 16.2583 9.44927 16.6697V18.9536C9.44927 19.0511 9.37411 19.1377 9.26673 19.1377H8.50434V18.8779C8.50434 18.8779 8.50434 18.867 8.50434 18.8562C8.21442 19.1485 7.82786 19.2026 7.6131 19.2026C7.39835 19.2026 6.6467 19.116 6.6467 18.3042C6.6467 17.4274 7.74196 17.0918 8.50434 16.8862C8.50434 16.6588 8.49361 16.5831 8.45066 16.4207C8.4077 16.2583 8.19295 16.215 8.09631 16.215C7.72048 16.215 7.25875 16.3449 6.88293 16.5181V16.0635C7.23728 15.912 7.74196 15.7712 8.18221 15.7712ZM8.50434 18.3799C8.50434 18.0552 8.50434 17.6222 8.50434 17.3083C7.86007 17.514 7.59163 17.9145 7.59163 18.2068C7.59163 18.4124 7.70974 18.6506 7.94598 18.6506C8.25737 18.6397 8.41844 18.4882 8.50434 18.3799Z" fill="url(#paint15_linear_281_1085)"/>
<path d="M22.4313 14.9051C22.6568 14.8835 22.8394 14.9268 23.0756 14.9917V14.5696C22.8179 14.5046 22.6031 14.4722 22.3562 14.4722C21.9589 14.4722 21.0891 14.6345 21.0891 15.4031V15.8361H20.4771V16.2474H21.0891V19.1267H21.8408C21.9374 19.1267 22.0233 19.0509 22.0233 18.9427V16.2474H22.7857V15.8469H22.0126V15.6304C22.0126 15.4031 22.0018 15.3165 22.077 15.1649C22.1414 14.9917 22.3454 14.916 22.4313 14.9051Z" fill="url(#paint16_linear_281_1085)"/>
<path d="M16.9443 19.1917C16.0745 19.1917 15.3658 18.434 15.3658 17.5897C15.3658 16.4531 16.0852 15.782 16.9872 15.7929C17.9644 15.8037 18.4583 16.4964 18.4261 17.4274H16.2893C16.2893 17.8712 16.3966 18.5531 17.1161 18.5531C17.7281 18.5315 17.9429 18.0119 18.0073 17.8712H18.4905C18.4368 18.2284 18.2972 18.4557 18.0932 18.6722C17.8355 18.8995 17.449 19.1809 16.9443 19.1917ZM17.3416 17.081C17.3308 16.3882 17.0731 16.1934 16.7832 16.1934C16.343 16.1934 16.2893 16.7995 16.2785 17.081H17.3416Z" fill="url(#paint17_linear_281_1085)"/>
<path d="M29.1532 17.4166C29.1532 18.3475 28.4445 19.181 27.4459 19.181C26.4795 19.181 25.7493 18.4449 25.7493 17.514C25.7493 16.5831 26.4043 15.7712 27.4459 15.7712C28.4123 15.7821 29.1532 16.4857 29.1532 17.4166ZM27.3171 16.1717C27.0057 16.2259 26.6084 16.713 26.8124 17.8387C26.9412 18.5748 27.2848 18.7913 27.564 18.7913C27.8432 18.7913 28.1546 18.3908 28.1546 17.7088C28.1439 16.3233 27.564 16.1284 27.3171 16.1717Z" fill="url(#paint18_linear_281_1085)"/>
<path d="M49.2007 17.4166C49.2007 18.3475 48.492 19.181 47.4934 19.181C46.527 19.181 45.7968 18.4449 45.7968 17.514C45.7968 16.5831 46.4519 15.7712 47.4934 15.7712C48.4598 15.7821 49.2007 16.4857 49.2007 17.4166ZM47.3646 16.1717C47.0532 16.2259 46.6559 16.713 46.8599 17.8387C46.9887 18.5748 47.3324 18.7913 47.6115 18.7913C47.8907 18.7913 48.2021 18.3908 48.2021 17.7088C48.1914 16.3233 47.6115 16.1284 47.3646 16.1717Z" fill="url(#paint19_linear_281_1085)"/>
<path d="M63.976 17.4166C63.976 18.3475 63.2673 19.181 62.2687 19.181C61.3023 19.181 60.5721 18.4449 60.5721 17.514C60.5721 16.5831 61.2271 15.7712 62.2687 15.7712C63.2351 15.7821 63.976 16.4857 63.976 17.4166ZM62.1291 16.1717C61.8177 16.2259 61.4204 16.713 61.6244 17.8387C61.7533 18.5748 62.0969 18.7913 62.3761 18.7913C62.6553 18.7913 62.9667 18.3908 62.9667 17.7088C62.9667 16.3233 62.3761 16.1284 62.1291 16.1717Z" fill="url(#paint20_linear_281_1085)"/>
<path d="M59.9815 15.0242C59.9815 15.3057 59.7561 15.5438 59.4661 15.5438C59.1869 15.5438 58.9507 15.3165 58.9507 15.0242C58.9507 14.7428 59.1762 14.5046 59.4661 14.5046C59.7561 14.5046 59.9815 14.7428 59.9815 15.0242Z" fill="url(#paint21_linear_281_1085)"/>
<path d="M12.8961 15.847V18.1526C12.8961 18.3691 13.0572 18.6181 13.3471 18.6181C13.5082 18.6181 13.7122 18.4232 13.8518 18.2067V16.0202C13.8518 15.9228 13.9269 15.8362 14.0343 15.8362H14.786V18.932C14.786 19.0294 14.7108 19.116 14.6034 19.116H13.8518V18.8129C13.7337 18.9212 13.5941 19.0186 13.4652 19.0835C13.3256 19.1485 13.186 19.181 13.0572 19.181C12.4022 19.181 11.9727 18.683 11.9727 18.1526V16.0202C11.9727 15.9228 12.0478 15.8362 12.1552 15.8362H12.8961" fill="url(#paint22_linear_281_1085)"/>
<path d="M65.4901 16.7238C65.5223 16.6913 65.8444 16.3774 66.1451 16.3558C66.3384 16.3558 66.4565 16.5723 66.4565 16.8753V19.116H67.2082C67.3048 19.116 67.3907 19.0402 67.3907 18.932V16.7671C67.3907 16.1501 66.886 15.7712 66.4565 15.7712C65.9733 15.7712 65.6619 15.9769 65.5008 16.096V15.8362H64.7385C64.6418 15.8362 64.5559 15.912 64.5559 16.0202V19.116H65.3183C65.4149 19.116 65.5008 19.0402 65.5008 18.932V16.7238H65.4901Z" fill="url(#paint23_linear_281_1085)"/>
<path d="M43.3272 16.7238C43.3594 16.6913 43.6815 16.3774 43.9822 16.3558C44.1755 16.3558 44.2936 16.5723 44.2936 16.8753V19.116H45.0453C45.1419 19.116 45.2278 19.0402 45.2278 18.932V16.7671C45.2278 16.1501 44.7231 15.7712 44.2936 15.7712C43.8104 15.7712 43.499 15.9769 43.3379 16.096V15.8362H42.5756C42.4789 15.8362 42.393 15.912 42.393 16.0202V19.116H43.1554C43.252 19.116 43.3379 19.0402 43.3379 18.932V16.7238H43.3272Z" fill="url(#paint24_linear_281_1085)"/>
<path d="M39.7729 16.7238C39.8052 16.6913 40.1273 16.3774 40.4279 16.3558C40.6212 16.3558 40.7393 16.5723 40.7393 16.8753V19.116H41.491C41.5876 19.116 41.6735 19.0402 41.6735 18.932V16.7671C41.6735 16.1501 41.1689 15.7712 40.7393 15.7712C40.2561 15.7712 39.9447 15.9769 39.7837 16.096V15.8362H39.0213C38.9246 15.8362 38.8387 15.912 38.8387 16.0202V19.116H39.6011C39.6978 19.116 39.7837 19.0402 39.7837 18.932V16.7238H39.7729Z" fill="url(#paint25_linear_281_1085)"/>
<path d="M33.5235 15.782C33.0403 15.782 32.6967 15.9876 32.4175 16.1933C32.2242 15.8902 31.8592 15.782 31.6229 15.782C31.1397 15.782 30.8283 15.9876 30.6672 16.1067V15.8469H29.9049C29.8082 15.8469 29.7223 15.9227 29.7223 16.0309V19.1268H30.4847C30.5813 19.1268 30.6672 19.051 30.6672 18.9427V16.7237C30.6995 16.6912 31.0216 16.3773 31.3223 16.3557C31.5155 16.3557 31.6337 16.5722 31.6337 16.8753V19.1159H32.3853H32.396C32.4927 19.1159 32.5786 19.0402 32.5786 18.9319V16.7129C32.6108 16.6804 32.9329 16.3665 33.2336 16.3449C33.4269 16.3449 33.545 16.5613 33.545 16.8644V19.1051H34.2966C34.3933 19.1051 34.4792 19.0293 34.4792 18.9211V16.7562C34.4577 16.1608 33.953 15.782 33.5235 15.782Z" fill="url(#paint26_linear_281_1085)"/>
<path d="M54.2583 18.6397C54.0221 18.6397 53.9039 18.4015 53.9039 18.1958C53.9039 17.9036 54.1724 17.5031 54.8167 17.2974C54.8167 17.6113 54.8167 18.0443 54.8167 18.369C54.72 18.4881 54.5697 18.6397 54.2583 18.6397ZM53.1845 16.0418V16.4964C53.5603 16.3232 54.0221 16.1933 54.3979 16.1933C54.4838 16.1933 54.7093 16.2366 54.7522 16.399C54.7952 16.5614 54.8059 16.6479 54.8059 16.8644C54.0435 17.0701 52.9483 17.3948 52.9483 18.2824C52.9483 19.0943 53.6999 19.1809 53.9147 19.1809C54.1294 19.1809 54.516 19.1268 54.8059 18.8345C54.8059 18.8453 54.8059 18.8561 54.8059 18.8561V19.1159H55.5683C55.6649 19.1159 55.7509 19.0402 55.7509 18.9319V16.6479C55.7509 16.2366 55.5146 15.7495 54.4838 15.7495C54.0435 15.7712 53.5389 15.9119 53.1845 16.0418Z" fill="url(#paint27_linear_281_1085)"/>
<path d="M56.6743 15.836V14.9809C56.6743 14.8835 56.7495 14.7969 56.8569 14.7969H57.63V15.836H58.3924V16.2474H57.63V18.369C57.63 18.4339 57.6407 18.488 57.6729 18.5422C57.7051 18.5963 57.7803 18.6179 57.8662 18.6179C58.0488 18.6179 58.3387 18.4664 58.3924 18.3798V18.8452C58.1991 19.0076 57.8662 19.2024 57.4689 19.2024C56.8676 19.2024 56.6958 18.7695 56.6958 18.4014V16.2474H56.2018V15.836H56.6743Z" fill="url(#paint28_linear_281_1085)"/>
<defs>
<linearGradient id="paint0_linear_281_1085" x1="53.8288" y1="-3.03833" x2="53.8288" y2="11.355" gradientUnits="userSpaceOnUse">
<stop stop-color="white"/>
<stop offset="1" stop-color="white"/>
</linearGradient>
<linearGradient id="paint1_linear_281_1085" x1="46.2747" y1="-3.04089" x2="46.2747" y2="11.3656" gradientUnits="userSpaceOnUse">
<stop stop-color="white"/>
<stop offset="1" stop-color="white"/>
</linearGradient>
<linearGradient id="paint2_linear_281_1085" x1="3.80657" y1="-3.04102" x2="3.80657" y2="11.3661" gradientUnits="userSpaceOnUse">
<stop stop-color="white"/>
<stop offset="1" stop-color="white"/>
</linearGradient>
<linearGradient id="paint3_linear_281_1085" x1="14.029" y1="-3.14634" x2="14.029" y2="11.758" gradientUnits="userSpaceOnUse">
<stop stop-color="white"/>
<stop offset="1" stop-color="white"/>
</linearGradient>
<linearGradient id="paint4_linear_281_1085" x1="64.3035" y1="-3.04089" x2="64.3035" y2="11.3656" gradientUnits="userSpaceOnUse">
<stop stop-color="white"/>
<stop offset="1" stop-color="white"/>
</linearGradient>
<linearGradient id="paint5_linear_281_1085" x1="31.1129" y1="4.78721" x2="31.1129" y2="11.3656" gradientUnits="userSpaceOnUse">
<stop stop-color="white"/>
<stop offset="1" stop-color="white"/>
</linearGradient>
<linearGradient id="paint6_linear_281_1085" x1="31.1129" y1="-1.64072" x2="31.1129" y2="6.10502" gradientUnits="userSpaceOnUse">
<stop stop-color="white"/>
<stop offset="1" stop-color="white"/>
</linearGradient>
<linearGradient id="paint7_linear_281_1085" x1="23.532" y1="-3.14562" x2="23.532" y2="11.7553" gradientUnits="userSpaceOnUse">
<stop stop-color="white"/>
<stop offset="1" stop-color="white"/>
</linearGradient>
<linearGradient id="paint8_linear_281_1085" x1="38.3126" y1="-3.04102" x2="38.3126" y2="11.3661" gradientUnits="userSpaceOnUse">
<stop stop-color="white"/>
<stop offset="1" stop-color="white"/>
</linearGradient>
<linearGradient id="paint9_linear_281_1085" x1="4.73602" y1="13.5885" x2="4.73602" y2="19.1918" gradientUnits="userSpaceOnUse">
<stop stop-color="white"/>
<stop offset="1" stop-color="white"/>
</linearGradient>
<linearGradient id="paint10_linear_281_1085" x1="10.711" y1="13.0016" x2="10.711" y2="19.1268" gradientUnits="userSpaceOnUse">
<stop stop-color="white"/>
<stop offset="1" stop-color="white"/>
</linearGradient>
<linearGradient id="paint11_linear_281_1085" x1="37.4428" y1="13.5952" x2="37.4428" y2="19.1161" gradientUnits="userSpaceOnUse">
<stop stop-color="white"/>
<stop offset="1" stop-color="white"/>
</linearGradient>
<linearGradient id="paint12_linear_281_1085" x1="51.0913" y1="14.8656" x2="51.0913" y2="19.1917" gradientUnits="userSpaceOnUse">
<stop stop-color="white"/>
<stop offset="1" stop-color="white"/>
</linearGradient>
<linearGradient id="paint13_linear_281_1085" x1="59.4608" y1="14.9547" x2="59.4608" y2="19.116" gradientUnits="userSpaceOnUse">
<stop stop-color="white"/>
<stop offset="1" stop-color="white"/>
</linearGradient>
<linearGradient id="paint14_linear_281_1085" x1="24.4124" y1="14.8694" x2="24.4124" y2="19.1268" gradientUnits="userSpaceOnUse">
<stop stop-color="white"/>
<stop offset="1" stop-color="white"/>
</linearGradient>
<linearGradient id="paint15_linear_281_1085" x1="8.04799" y1="14.8491" x2="8.04799" y2="19.2026" gradientUnits="userSpaceOnUse">
<stop stop-color="white"/>
<stop offset="1" stop-color="white"/>
</linearGradient>
<linearGradient id="paint16_linear_281_1085" x1="21.7763" y1="13.2213" x2="21.7763" y2="19.1267" gradientUnits="userSpaceOnUse">
<stop stop-color="white"/>
<stop offset="1" stop-color="white"/>
</linearGradient>
<linearGradient id="paint17_linear_281_1085" x1="16.9282" y1="14.8792" x2="16.9282" y2="19.1917" gradientUnits="userSpaceOnUse">
<stop stop-color="white"/>
<stop offset="1" stop-color="white"/>
</linearGradient>
<linearGradient id="paint18_linear_281_1085" x1="27.4513" y1="14.8549" x2="27.4513" y2="19.181" gradientUnits="userSpaceOnUse">
<stop stop-color="white"/>
<stop offset="1" stop-color="white"/>
</linearGradient>
<linearGradient id="paint19_linear_281_1085" x1="47.4988" y1="14.8549" x2="47.4988" y2="19.181" gradientUnits="userSpaceOnUse">
<stop stop-color="white"/>
<stop offset="1" stop-color="white"/>
</linearGradient>
<linearGradient id="paint20_linear_281_1085" x1="62.2741" y1="14.8549" x2="62.2741" y2="19.181" gradientUnits="userSpaceOnUse">
<stop stop-color="white"/>
<stop offset="1" stop-color="white"/>
</linearGradient>
<linearGradient id="paint21_linear_281_1085" x1="59.4661" y1="14.2254" x2="59.4661" y2="15.5438" gradientUnits="userSpaceOnUse">
<stop stop-color="white"/>
<stop offset="1" stop-color="white"/>
</linearGradient>
<linearGradient id="paint22_linear_281_1085" x1="13.3793" y1="14.9373" x2="13.3793" y2="19.181" gradientUnits="userSpaceOnUse">
<stop stop-color="white"/>
<stop offset="1" stop-color="white"/>
</linearGradient>
<linearGradient id="paint23_linear_281_1085" x1="65.9733" y1="14.8723" x2="65.9733" y2="19.116" gradientUnits="userSpaceOnUse">
<stop stop-color="white"/>
<stop offset="1" stop-color="white"/>
</linearGradient>
<linearGradient id="paint24_linear_281_1085" x1="43.8104" y1="14.8723" x2="43.8104" y2="19.116" gradientUnits="userSpaceOnUse">
<stop stop-color="white"/>
<stop offset="1" stop-color="white"/>
</linearGradient>
<linearGradient id="paint25_linear_281_1085" x1="40.2561" y1="14.8723" x2="40.2561" y2="19.116" gradientUnits="userSpaceOnUse">
<stop stop-color="white"/>
<stop offset="1" stop-color="white"/>
</linearGradient>
<linearGradient id="paint26_linear_281_1085" x1="32.1008" y1="14.8831" x2="32.1008" y2="19.1268" gradientUnits="userSpaceOnUse">
<stop stop-color="white"/>
<stop offset="1" stop-color="white"/>
</linearGradient>
<linearGradient id="paint27_linear_281_1085" x1="54.3496" y1="14.8273" x2="54.3496" y2="19.1809" gradientUnits="userSpaceOnUse">
<stop stop-color="white"/>
<stop offset="1" stop-color="white"/>
</linearGradient>
<linearGradient id="paint28_linear_281_1085" x1="57.2971" y1="13.6129" x2="57.2971" y2="19.2024" gradientUnits="userSpaceOnUse">
<stop stop-color="white"/>
<stop offset="1" stop-color="white"/>
</linearGradient>
</defs>
</svg>
